<?xml version="1.0" encoding="UTF-8" standalone="no"?>
<!-- Created with Inkscape (http://www.inkscape.org/) -->

<svg
   width="1000"
   height="1000"
   viewBox="0 0 1000 1000"
   version="1.1"
   id="SVGRoot"
   xmlns="http://www.w3.org/2000/svg"
   xmlns:svg="http://www.w3.org/2000/svg">
  <defs
     id="defs77" />
  <g
     id="layer1">
    <circle
       style="fill:#00B187;;fill-opacity:1;stroke:none;stroke-width:9.9375;stroke-linecap:round;stroke-linejoin:bevel;stroke-dasharray:none;stroke-opacity:1;paint-order:stroke fill markers"
       id="path2730"
       cx="500"
       cy="500"
       r="495.03125" />
    <path
       style="fill:#ffffff;fill-opacity:1;stroke:none;stroke-width:10;stroke-linecap:round;stroke-linejoin:bevel;stroke-dasharray:none;stroke-opacity:1;paint-order:stroke fill markers"
       d="M 231.46736,917.1526 101.92532,500 c 0,0 -68.397253,-164.71933 16.09348,-245.18669 84.49073,-80.46736 532.4257,89.85522 532.4257,89.85522 L 386.24334,244.08433 c 0,0 352.37427,-114.12972 469.39293,-2.68225 117.01866,111.44748 -114.68085,693.02875 -114.68085,693.02875 0,0 -115.12865,67.30607 -254.36665,67.30607 -139.238,0 -255.12141,-84.5843 -255.12141,-84.5843 z"
       id="path3798" />
    <ellipse
       style="fill:#00B187;fill-opacity:1;stroke:none;stroke-width:10.8797;stroke-linecap:round;stroke-linejoin:bevel;stroke-dasharray:none;stroke-opacity:1;paint-order:stroke fill markers"
       id="path4366"
       cx="646.12537"
       cy="-500"
       rx="38.892559"
       ry="67.726692"
       transform="scale(1,-1)" />
    <ellipse
       style="fill:#00B187;fill-opacity:1;stroke:none;stroke-width:10.8797;stroke-linecap:round;stroke-linejoin:bevel;stroke-dasharray:none;stroke-opacity:1;paint-order:stroke fill markers"
       id="ellipse4368"
       cx="340.6452"
       cy="-500"
       rx="38.892559"
       ry="67.726692"
       transform="scale(1,-1)" />
    <path
       style="fill:#00B187;fill-opacity:1;stroke:none;stroke-width:10;stroke-linecap:round;stroke-linejoin:bevel;stroke-dasharray:none;stroke-opacity:1;paint-order:stroke fill markers"
       d="m 685.01791,677.26695 c 0,0 -152.04633,118.37813 -319.80074,46.93929 -25.42114,-10.82569 -69.1775,-44.25704 -69.1775,-44.25704 0,0 35.01652,39.95214 60.78228,51.63322 177.00643,80.24702 328.19596,-54.31547 328.19596,-54.31547 z"
       id="path4504" />
  </g>
</svg>
